<svg width="20" height="20" viewBox="0 0 20 20" fill="none" xmlns="http://www.w3.org/2000/svg">
<path d="M10 0C15.5228 0 20 4.47715 20 10C20 15.5228 15.5228 20 10 20C4.47715 20 0 15.5228 0 10C0 4.47715 4.47715 0 10 0ZM10.1597 14C8.1243 14 6.29182 14.8687 5.01276 16.2556C6.38039 17.3474 8.114 18 10 18C11.9695 18 13.7727 17.2883 15.1666 16.1081C13.8956 14.8074 12.1219 14 10.1597 14ZM10 2C5.58172 2 2 5.58172 2 10C2 11.8106 2.6015 13.4807 3.61557 14.8214C5.25639 13.0841 7.58144 12 10.1597 12C12.6441 12 14.8933 13.0066 16.5218 14.6342C17.4526 13.3267 18 11.7273 18 10C18 5.58172 14.4183 2 10 2ZM10 3C12.2091 3 14 4.79086 14 7C14 9.2091 12.2091 11 10 11C7.79086 11 6 9.2091 6 7C6 4.79086 7.79086 3 10 3ZM10 5C8.8954 5 8 5.89543 8 7C8 8.1046 8.8954 9 10 9C11.1046 9 12 8.1046 12 7C12 5.89543 11.1046 5 10 5Z"/>
</svg>
