<svg width="18" height="24" viewBox="0 0 18 24" fill="none" xmlns="http://www.w3.org/2000/svg">
<path d="M14.4444 1.11111H10V0H7.77778V1.11111H3.33333C1.49239 1.11111 0 2.6035 0 4.44444V7.77778C0 10.846 2.48731 13.3333 5.55556 13.3333H12.2222C15.2904 13.3333 17.7778 10.846 17.7778 7.77778V4.44444C17.7778 2.6035 16.2854 1.11111 14.4444 1.11111ZM7.77778 7.22222C7.77778 8.1427 7.03156 8.88889 6.11111 8.88889C5.19063 8.88889 4.44444 8.1427 4.44444 7.22222C4.44444 6.30174 5.19063 5.55556 6.11111 5.55556C7.03156 5.55556 7.77778 6.30174 7.77778 7.22222ZM13.3333 7.22222C13.3333 8.1427 12.5871 8.88889 11.6667 8.88889C10.7462 8.88889 10 8.1427 10 7.22222C10 6.30174 10.7462 5.55556 11.6667 5.55556C12.5871 5.55556 13.3333 6.30174 13.3333 7.22222ZM0 23.3333C0 18.4241 3.97969 14.4444 8.88889 14.4444C13.7981 14.4444 17.7778 18.4241 17.7778 23.3333H0Z" fill="white"/>
</svg>
