<svg width="23" height="20" viewBox="0 0 23 20" fill="none" xmlns="http://www.w3.org/2000/svg">
<g clip-path="url(#clip0_435_3014)">
<path d="M18.2097 14.1209C18.2097 14.6971 17.9808 15.2497 17.5734 15.6571C17.166 16.0645 16.6135 16.2934 16.0373 16.2934H1.91635C1.34018 16.2934 0.787606 16.0645 0.380193 15.6571C-0.0272209 15.2497 -0.256104 14.6971 -0.256104 14.1209V3.42867C-0.256104 2.22894 2.88906 0 4.0888 0H15.2905C16.9709 0 18.2097 1.25568 18.2097 2.91923V14.1209Z" fill="#226699"/>
<path d="M17.1237 16.2933C17.1237 16.8695 16.8948 17.422 16.4874 17.8294C16.08 18.2369 15.5274 18.4657 14.9513 18.4657H3.00277C2.4266 18.4657 1.87403 18.2369 1.46662 17.8294C1.05921 17.422 0.830323 16.8695 0.830323 16.2933V3.25858C0.830323 1.0215 0.818918 1.08613 3.54589 1.08613H14.9513C15.5274 1.08613 16.08 1.31501 16.4874 1.72243C16.8948 2.12984 17.1237 2.68241 17.1237 3.25858V16.2933Z" fill="#CCD6DD"/>
<path d="M16.0373 16.8369C16.0373 17.269 15.8656 17.6835 15.5601 17.989C15.2545 18.2946 14.8401 18.4662 14.4079 18.4662H1.37323C0.941108 18.4662 0.526679 18.2946 0.221119 17.989C-0.0844416 17.6835 -0.256104 17.269 -0.256104 16.8369V3.80219C-0.256104 3.37006 -0.0844416 2.95563 0.221119 2.65007C0.526679 2.34451 0.941108 2.17285 1.37323 2.17285H14.4079C14.8401 2.17285 15.2545 2.34451 15.5601 2.65007C15.8656 2.95563 16.0373 3.37006 16.0373 3.80219V16.8369Z" fill="#E1E8ED"/>
<path d="M16.0376 17.3797C16.0376 17.9559 15.8087 18.5085 15.4013 18.9159C14.9939 19.3233 14.4413 19.5522 13.8652 19.5522H2.45981C1.88364 19.5522 1.33106 19.3233 0.92365 18.9159C0.516236 18.5085 0.287354 17.9559 0.287354 17.3797V5.43124C0.287354 4.85507 0.516236 4.3025 0.92365 3.89509C1.33106 3.48767 1.88364 3.25879 2.45981 3.25879H13.8652C14.4413 3.25879 14.9939 3.48767 15.4013 3.89509C15.8087 4.3025 16.0376 4.85507 16.0376 5.43124V17.3797Z" fill="#3B88C3"/>
<path d="M14.9514 17.3794C14.9514 17.9556 14.7225 18.5082 14.3151 18.9156C13.9077 19.323 13.3551 19.5519 12.7789 19.5519H2.4598C1.88363 19.5519 1.33106 19.323 0.92365 18.9156C0.516236 18.5082 0.287354 17.9556 0.287354 17.3794V6.51718C0.287354 5.94101 0.516236 5.38844 0.92365 4.98102C1.33106 4.57361 1.88363 4.34473 2.4598 4.34473H12.9609C14.1606 4.34473 14.9514 5.1355 14.9514 6.33524V17.3794Z" fill="#55ACEE"/>
<path d="M2.45946 3.25868C1.54269 3.25868 1.51933 2.21481 1.91635 1.76512C2.36822 1.25405 3.07046 1.08623 4.32668 1.08623H5.17502V0H3.6983C1.54269 0 -0.256104 1.35778 -0.256104 2.91923V17.3796C-0.256104 17.9558 -0.0272209 18.5084 0.380193 18.9158C0.787606 19.3232 1.34018 19.5521 1.91635 19.5521H3.00257V3.25868H2.45946Z" fill="#226699"/>
</g>
<defs>
<clipPath id="clip0_435_3014">
<rect width="22.18" height="19.5521" fill="white"/>
</clipPath>
</defs>
</svg>
