<svg width="18" height="20" viewBox="0 0 18 20" fill="none" xmlns="http://www.w3.org/2000/svg">
<g clip-path="url(#clip0_357_2584)">
<path d="M3.75 0C1.67969 0 0 1.67969 0 3.75V16.25C0 18.3203 1.67969 20 3.75 20H15H16.25C16.9414 20 17.5 19.4414 17.5 18.75C17.5 18.0586 16.9414 17.5 16.25 17.5V15C16.9414 15 17.5 14.4414 17.5 13.75V1.25C17.5 0.558594 16.9414 0 16.25 0H15H3.75ZM3.75 15H13.75V17.5H3.75C3.05859 17.5 2.5 16.9414 2.5 16.25C2.5 15.5586 3.05859 15 3.75 15ZM5 5.625C5 5.28125 5.28125 5 5.625 5H13.125C13.4688 5 13.75 5.28125 13.75 5.625C13.75 5.96875 13.4688 6.25 13.125 6.25H5.625C5.28125 6.25 5 5.96875 5 5.625ZM5.625 7.5H13.125C13.4688 7.5 13.75 7.78125 13.75 8.125C13.75 8.46875 13.4688 8.75 13.125 8.75H5.625C5.28125 8.75 5 8.46875 5 8.125C5 7.78125 5.28125 7.5 5.625 7.5Z" fill="#16A34A"/>
</g>
<defs>
<clipPath id="clip0_357_2584">
<path d="M0 0H17.5V20H0V0Z" fill="white"/>
</clipPath>
</defs>
</svg>
