<svg width="22" height="21" viewBox="0 0 22 21" fill="none" xmlns="http://www.w3.org/2000/svg">
<path d="M18.7134 7.12811L18.4668 7.69379C18.2864 8.10792 17.7136 8.10792 17.5331 7.69379L17.2866 7.12811C16.8471 6.11947 16.0555 5.31641 15.0677 4.87708L14.308 4.53922C13.8973 4.35653 13.8973 3.75881 14.308 3.57612L15.0252 3.25714C16.0384 2.80651 16.8442 1.97373 17.2761 0.930831L17.5293 0.319531C17.7058 -0.10651 18.2942 -0.10651 18.4706 0.319531L18.7238 0.930831C19.1558 1.97373 19.9616 2.80651 20.9748 3.25714L21.6919 3.57612C22.1027 3.75881 22.1027 4.35653 21.6919 4.53922L20.9323 4.87708C19.9445 5.31641 19.1529 6.11947 18.7134 7.12811ZM20 11C20 10.5553 19.971 10.1174 19.9147 9.688C19.3134 9.8903 18.6695 10 18 10C16.9071 10 15.8825 9.7078 15 9.1973V14H13V8H13.5278C12.5777 6.93849 12 5.53671 12 4C12 3.04715 12.2221 2.14617 12.6174 1.34603C11.7831 1.12039 10.9056 1 10 1C4.47715 1 0 5.47715 0 11C0 13.7614 1.11929 16.2614 2.92893 18.0711L0 21H10C15.5228 21 20 16.5228 20 11ZM9 5H11V17H9V5ZM5 14V8H7V14H5Z"/>
</svg>
