<svg width="120" height="120" viewBox="0 0 120 120" fill="none" xmlns="http://www.w3.org/2000/svg">
<g opacity="0.8">
<path d="M14.9591 81.7053C15.6943 83.5597 15.858 85.5917 15.4291 87.5399L10.1044 103.989C9.93286 104.823 9.97722 105.687 10.2333 106.5C10.4894 107.312 10.9487 108.045 11.5677 108.63C12.1867 109.215 12.9448 109.632 13.7702 109.842C14.5956 110.052 15.4609 110.047 16.2841 109.829L33.3481 104.839C35.1865 104.474 37.0905 104.634 38.8427 105.299C49.5191 110.285 61.6132 111.34 72.9915 108.277C84.3698 105.215 94.3009 98.2325 101.033 88.5617C107.764 78.8908 110.864 67.1531 109.785 55.4195C108.706 43.6859 103.517 32.7105 95.1348 24.4296C86.7521 16.1487 75.7141 11.0946 63.9682 10.1589C52.2223 9.22326 40.5233 12.4662 30.9354 19.3156C21.3475 26.165 14.4868 36.1806 11.5638 47.5954C8.64079 59.0102 9.84329 71.0906 14.9591 81.7053Z" stroke="#10B981" stroke-width="7.49956" stroke-linecap="round" stroke-linejoin="round"/>
</g>
</svg>
