<svg width="85" height="85" viewBox="0 0 85 85" fill="none" xmlns="http://www.w3.org/2000/svg">
<path d="M70.2578 56.9766C68.2656 43.0313 56.5781 32.4062 42.5 32.4062C28.4219 32.4062 16.7344 43.0313 14.7422 56.8438H70.2578V56.9766Z" fill="#428BC1"/>
<path d="M82.0781 30.4144C81.5468 28.0238 80.0859 26.1644 77.9609 24.9691C77.0312 24.4378 75.9687 24.1722 74.9062 24.0394C73.9765 23.9066 73.0468 24.0394 72.1171 24.305C70.5234 24.7035 68.9296 25.5003 67.4687 26.1644C65.4765 27.0941 63.6171 28.0238 61.8906 28.0238V34.1332C64.9453 34.1332 67.7343 32.805 70.125 31.6097C72.6484 30.4144 74.2421 29.6175 75.1718 30.1488C75.8359 30.5472 76.2343 31.0785 76.3671 31.7425C76.5 32.5394 76.5 33.6019 76.2343 34.7972C75.9687 36.1253 75.3046 37.5863 74.5078 39.3128C72.914 42.6332 70.789 45.8207 69.1953 48.2113C68.664 49.141 68.1328 49.9378 67.7343 50.4691L67.3359 51.266C67.3359 51.3988 67.2031 51.3988 67.2031 51.5316H18.0625C18.0625 51.3988 17.9296 51.3988 17.9296 51.266L17.5312 50.4691C17.1328 49.805 16.6015 49.0082 16.0703 48.2113C14.4765 45.8207 12.3515 42.6332 10.7578 39.3128C9.9609 37.5863 9.42965 36.1253 9.03121 34.7972C8.76558 33.4691 8.63277 32.4066 8.8984 31.7425C9.03121 31.0785 9.42965 30.5472 10.0937 30.1488C11.0234 29.6175 12.6171 30.2816 15.1406 31.6097C17.5312 32.805 20.1875 34.1332 23.375 34.1332V28.0238C21.6484 28.0238 19.789 27.0941 17.7968 26.1644C16.3359 25.3675 14.7421 24.7035 13.1484 24.305C11.9531 24.0394 11.0234 23.9066 10.0937 24.0394C9.03121 24.1722 7.96871 24.4378 7.03902 24.9691C4.91402 26.1644 3.45308 28.1566 2.92183 30.4144C2.25777 33.4691 2.92183 37.3207 5.31246 42.1019C7.03902 45.6878 9.29683 49.141 11.0234 51.6644C11.5546 52.4613 12.0859 53.2582 12.3515 53.7894C12.4843 54.055 12.6171 54.3207 12.8828 54.5863C13.6796 55.7816 14.2109 56.7113 14.4765 57.7738V72.7816C14.0781 72.7816 13.8125 73.0472 13.8125 73.5785C13.8125 73.9769 14.0781 74.3753 14.4765 74.3753H70.6562C71.0546 74.3753 71.3203 74.1097 71.3203 73.5785C71.3203 73.18 71.0546 72.7816 70.6562 72.7816V57.9066C71.0546 56.8441 71.5859 55.9144 72.25 54.7191C72.3828 54.4535 72.5156 54.1878 72.7812 53.9222C73.0468 53.391 73.5781 52.5941 74.1093 51.7972C75.7031 49.2738 77.9609 45.8207 79.8203 42.2347C82.0781 37.4535 82.7421 33.6019 82.0781 30.4144Z" fill="#F2B200"/>
<path d="M43.6949 36.1251C44.3589 38.2501 41.0386 41.4376 36.2574 43.0314C31.4761 44.758 26.9605 44.3595 26.1636 42.2345C25.4996 40.1095 28.8199 36.922 33.6011 35.3283C38.3824 33.7345 42.898 34.0001 43.6949 36.1251Z" fill="#42ADE2"/>
<path d="M39.3125 59.2344H45.6875V73.5781H39.3125V59.2344Z" fill="#FFDD7D"/>
<path d="M50.2031 59.2344H56.5781V73.5781H50.2031V59.2344Z" fill="#FFCE31"/>
<path d="M45.6875 59.2344H50.2031V73.5781H45.6875V59.2344Z" fill="white"/>
<path d="M61.0938 59.2344H65.6094V73.5781H61.0938V59.2344Z" fill="#FFCE31"/>
<path d="M14.3438 59.2344H18.8594V73.5781H14.3438V59.2344Z" fill="#F2B200"/>
<path d="M19.3906 59.2344H28.1563V73.5781H19.3906V59.2344Z" fill="#FFCE31"/>
<path d="M37.7188 46.3516C37.7188 48.3438 34.1328 53.3906 34.1328 53.3906C34.1328 53.3906 30.5469 48.3438 30.5469 46.3516C30.5469 44.3594 32.1406 42.7656 34.1328 42.7656C36.125 42.7656 37.7188 44.3594 37.7188 46.3516ZM54.3203 46.3516C54.3203 48.3438 50.7344 53.3906 50.7344 53.3906C50.7344 53.3906 47.1484 48.3438 47.1484 46.3516C47.1484 44.3594 48.7422 42.7656 50.7344 42.7656C52.7266 42.7656 54.3203 44.3594 54.3203 46.3516Z" fill="#F2B200"/>
<path d="M50.8672 16.7344H34.1328L38.1172 10.4922H46.6172L50.8672 16.7344Z" fill="#66CAF2"/>
<path d="M16.0703 43.5625C19.2578 40.5078 25.6328 38.9141 29.8828 40.1094C26.5625 43.1641 20.3203 44.7578 16.0703 43.5625ZM69.1953 43.5625C64.9453 44.7578 58.5703 43.1641 55.3828 40.1094C59.6328 38.9141 66.0078 40.5078 69.1953 43.5625ZM35.3281 39.9766C39.1797 37.7188 45.6875 37.7188 49.5391 39.9766C45.6875 42.2344 39.3125 42.2344 35.3281 39.9766Z" fill="#FFCE31"/>
<path d="M43.8281 10.4922L45.2891 16.7344H50.8672L46.6172 10.4922H43.8281Z" fill="#428BC1"/>
<path d="M43.8281 10.4922H40.9062L39.7109 16.7344H45.2891L43.8281 10.4922Z" fill="#42ADE2"/>
<path d="M40.9062 10.4922L39.7109 16.7344H34.1328L38.1172 10.4922H40.9062Z" fill="#66CAF2"/>
<path d="M15.2734 55.3828C24.3047 54.7188 33.4688 54.5859 42.5 54.5859C51.5312 54.5859 60.6953 54.7188 69.7266 55.3828C60.6953 56.0469 51.5312 56.1797 42.5 56.1797C33.4688 56.0469 24.3047 56.0469 15.2734 55.3828Z" fill="#FFDD7D"/>
<path d="M14.3438 59.2344H70.5234V60.6953H14.3438V59.2344Z" fill="#428BC1"/>
<path d="M14.3438 60.6953C14.7105 60.6953 15.0078 60.3385 15.0078 59.8984C15.0078 59.4583 14.7105 59.1016 14.3438 59.1016C13.977 59.1016 13.6797 59.4583 13.6797 59.8984C13.6797 60.3385 13.977 60.6953 14.3438 60.6953Z" fill="#428BC1"/>
<path d="M70.6562 60.6953C71.023 60.6953 71.3203 60.3385 71.3203 59.8984C71.3203 59.4583 71.023 59.1016 70.6562 59.1016C70.2895 59.1016 69.9922 59.4583 69.9922 59.8984C69.9922 60.3385 70.2895 60.6953 70.6562 60.6953Z" fill="#428BC1"/>
<path d="M67.336 27.0937C66.9376 25.6328 66.4063 24.3047 65.4766 23.1094C64.547 21.9141 63.4845 20.8516 62.0235 20.0547C60.961 19.5234 59.8985 19.125 58.7032 18.9922C57.7735 18.8594 56.711 18.9922 55.6485 19.2578C53.922 19.6562 52.1954 20.5859 50.4688 21.3828C50.0704 21.6484 49.5391 21.7813 49.0079 22.0469C50.0704 19.9219 50.7344 17.9297 50.7344 16.6016H34.1329C34.1329 17.9297 34.7969 19.9219 35.8594 22.0469C35.3282 21.7813 34.9298 21.6484 34.3985 21.3828C32.6719 20.5859 30.9454 19.6562 29.2188 19.2578C28.1563 18.9922 27.0938 18.8594 26.1641 18.9922C24.9688 19.125 23.9063 19.3906 22.8438 20.0547C21.5157 20.8516 20.3204 21.9141 19.3907 23.1094C18.5938 24.3047 17.9298 25.6328 17.5313 27.0937C16.6016 30.9453 17.1329 35.8594 19.2579 41.5703C20.8516 46.0859 22.9766 49.8047 23.9063 51.6641H30.9454C30.6798 51.1328 30.2813 50.6016 30.0157 50.0703C29.8829 49.8047 29.6173 49.5391 29.4844 49.2734C26.6954 44.7578 21.9141 34.5312 23.3751 28.6875C23.7735 27.2266 24.4376 26.1641 25.7657 25.5C26.1641 25.2344 26.6954 25.1016 27.8907 25.3672C29.086 25.6328 30.4141 26.2969 31.8751 27.0937C34.1329 28.2891 36.6563 29.4844 39.4454 29.8828V51.7969H45.4219V29.8828C48.211 29.4844 50.7344 28.2891 53.1251 27.0937C54.586 26.4297 55.9141 25.6328 57.1094 25.3672C58.3048 25.1016 58.836 25.2344 59.2344 25.5C60.4298 26.1641 61.2266 27.2266 61.6251 28.6875C63.086 34.5312 58.3048 44.625 55.5157 49.2734C55.3829 49.5391 55.1173 49.8047 54.9845 50.0703C54.586 50.6016 54.3204 51.1328 54.0548 51.6641H61.0938C62.1563 49.9375 64.1485 46.0859 65.7423 41.5703C67.7345 35.8594 68.2657 30.9453 67.336 27.0937Z" fill="#FFCE31"/>
<path d="M42.5 22.7109C40.2422 22.7109 38.25 21.7812 36.6562 20.4531C37.0547 23.375 39.4453 25.6328 42.5 25.6328C45.4219 25.6328 47.9453 23.375 48.3438 20.4531C46.75 21.9141 44.7578 22.7109 42.5 22.7109Z" fill="#F2B200"/>
</svg>
