<svg width="24" height="24" viewBox="0 0 24 24" fill="none" xmlns="http://www.w3.org/2000/svg">
<rect width="24" height="24" rx="12" fill="#79AE46"/>
<mask id="mask0_657_5372" style="mask-type:alpha" maskUnits="userSpaceOnUse" x="7" y="7" width="10" height="10">
<path d="M10.3923 15.5871L14.559 11.4203L12.5799 9.44118L8.41312 13.6079C8.35576 13.6654 8.31501 13.7373 8.2952 13.816L7.83337 16.1668L10.1838 15.705C10.2627 15.6853 10.3349 15.6445 10.3923 15.5871ZM15.9042 10.0752C16.0723 9.90702 16.1667 9.67897 16.1667 9.44118C16.1667 9.2034 16.0723 8.97534 15.9042 8.80718L15.193 8.09605C15.0249 7.92794 14.7968 7.8335 14.559 7.8335C14.3212 7.8335 14.0932 7.92794 13.925 8.09605L13.2139 8.80718L15.193 10.7863L15.9042 10.0752Z" fill="#006FFD"/>
</mask>
<g mask="url(#mask0_657_5372)">
<rect x="7" y="7" width="10" height="10" fill="white"/>
</g>
</svg>
