<svg width="28" height="28" viewBox="0 0 28 28" fill="none" xmlns="http://www.w3.org/2000/svg">
<path fill-rule="evenodd" clip-rule="evenodd" d="M22.4 14.199C22.4 13.5785 22.3443 12.9819 22.2409 12.4092H14V15.7938H18.7091C18.5063 16.8876 17.8898 17.8143 16.9631 18.4348V20.6302H19.7909C21.4455 19.1069 22.4 16.8637 22.4 14.199Z" fill="#4285F4"/>
<path fill-rule="evenodd" clip-rule="evenodd" d="M14 22.7501C16.3625 22.7501 18.3432 21.9666 19.7909 20.6302L16.9631 18.4348C16.1795 18.9598 15.1773 19.27 14 19.27C11.721 19.27 9.79203 17.7308 9.10396 15.6626H6.18066V17.9296C7.62044 20.7893 10.5795 22.7501 14 22.7501Z" fill="#34A853"/>
<path fill-rule="evenodd" clip-rule="evenodd" d="M9.10398 15.6624C8.92898 15.1374 8.82955 14.5766 8.82955 13.9999C8.82955 13.4232 8.92898 12.8624 9.10398 12.3374V10.0703H6.18068C5.58807 11.2516 5.25 12.5879 5.25 13.9999C5.25 15.4118 5.58807 16.7482 6.18068 17.9294L9.10398 15.6624Z" fill="#FBBC05"/>
<path fill-rule="evenodd" clip-rule="evenodd" d="M14 8.73012C15.2847 8.73012 16.4381 9.1716 17.3449 10.0386L19.8546 7.52898C18.3392 6.11705 16.3585 5.25 14 5.25C10.5795 5.25 7.62044 7.2108 6.18066 10.0705L9.10396 12.3375C9.79203 10.2693 11.721 8.73012 14 8.73012Z" fill="#EA4335"/>
</svg>
