<svg width="120" height="120" viewBox="0 0 120 120" fill="none" xmlns="http://www.w3.org/2000/svg">
<path d="M59.9966 99.9941H60.0466" stroke="#D9D9D9" stroke-width="7.49956" stroke-linecap="round" stroke-linejoin="round"/>
<path d="M42.4976 82.1402C47.1705 77.5598 53.4531 74.9941 59.9965 74.9941C66.54 74.9941 72.8226 77.5598 77.4955 82.1402" stroke="#D9D9D9" stroke-width="7.49956" stroke-linecap="round" stroke-linejoin="round"/>
<path d="M24.9985 64.2913C32.0883 57.3412 41.0866 52.6593 50.847 50.842" stroke="#D9D9D9" stroke-width="7.49956" stroke-linecap="round" stroke-linejoin="round"/>
<path d="M94.995 64.2918C91.9844 61.3405 88.6126 58.7819 84.96 56.6768" stroke="#D9D9D9" stroke-width="7.49956" stroke-linecap="round" stroke-linejoin="round"/>
<path d="M9.99951 44.0975C16.1821 38.5682 23.2392 34.1029 30.8833 30.8833" stroke="#D9D9D9" stroke-width="7.49956" stroke-linecap="round" stroke-linejoin="round"/>
<path d="M109.994 44.0975C102.368 37.2769 93.4268 32.0889 83.7211 28.8525C74.0154 25.6161 63.7501 24.3999 53.5569 25.2786" stroke="#D9D9D9" stroke-width="7.49956" stroke-linecap="round" stroke-linejoin="round"/>
<path d="M9.99951 9.99951L109.994 109.994" stroke="#10B981" stroke-width="7.49956" stroke-linecap="round" stroke-linejoin="round"/>
</svg>
