<svg width="18" height="18" viewBox="0 0 18 18" fill="none" xmlns="http://www.w3.org/2000/svg">
<path d="M6.3002 9.6002C6.5738 9.6002 6.8114 9.6002 7.0202 9.6506C7.34313 9.72764 7.63847 9.8925 7.87354 10.1269C8.10862 10.3614 8.27428 10.6563 8.3522 10.979C8.4002 11.189 8.4002 11.4266 8.4002 11.7002V14.7002C8.4002 14.9738 8.4002 15.2114 8.351 15.4202C8.27376 15.7434 8.10854 16.039 7.87365 16.2741C7.63876 16.5092 7.34336 16.6747 7.0202 16.7522C6.8114 16.8002 6.5738 16.8002 6.3002 16.8002H3.3002C3.0266 16.8002 2.789 16.8002 2.5802 16.751C2.25755 16.6735 1.96262 16.5083 1.72798 16.2736C1.49334 16.039 1.32813 15.744 1.2506 15.4214C1.2002 15.2114 1.2002 14.9738 1.2002 14.7002V11.7002C1.2002 11.4266 1.2002 11.189 1.2506 10.9802C1.32803 10.6577 1.49306 10.3629 1.72748 10.1282C1.96189 9.89362 2.25657 9.72832 2.579 9.6506C2.789 9.6002 3.0266 9.6002 3.3002 9.6002H6.3002ZM14.7002 9.6002C14.9738 9.6002 15.2114 9.6002 15.4202 9.6506C15.7429 9.72784 16.038 9.89278 16.2728 10.1272C16.5077 10.3616 16.6732 10.6564 16.751 10.979C16.8014 11.189 16.8002 11.4266 16.8002 11.7002V14.7002C16.8002 14.9738 16.8002 15.2114 16.751 15.4202C16.6737 15.7431 16.5085 16.0382 16.2739 16.2731C16.0392 16.508 15.7442 16.6734 15.4214 16.751C15.2114 16.8014 14.9738 16.8002 14.7002 16.8002H11.7002C11.4266 16.8002 11.189 16.8002 10.9802 16.751C10.6576 16.6735 10.3626 16.5083 10.128 16.2736C9.89334 16.039 9.72813 15.744 9.6506 15.4214C9.6002 15.2114 9.6002 14.9738 9.6002 14.7002V11.7002C9.6002 11.4266 9.6002 11.189 9.6506 10.9802C9.72803 10.6577 9.89307 10.3629 10.1275 10.1282C10.3619 9.89362 10.6566 9.72832 10.979 9.6506C11.189 9.6002 11.4266 9.6002 11.7002 9.6002H14.7002ZM3.3602 10.8002C2.9918 10.8002 2.9126 10.8038 2.861 10.817C2.7532 10.8428 2.65465 10.8979 2.57628 10.9763C2.49791 11.0547 2.44277 11.1532 2.417 11.261C2.405 11.3126 2.4002 11.393 2.4002 11.7602V14.6402C2.4002 15.0098 2.4038 15.089 2.417 15.1406C2.44277 15.2484 2.49791 15.3469 2.57628 15.4253C2.65465 15.5037 2.7532 15.5588 2.861 15.5846C2.9126 15.5966 2.993 15.6002 3.3602 15.6002H6.2402C6.6098 15.6002 6.689 15.5966 6.7406 15.5834C6.84824 15.5577 6.94669 15.5028 7.02504 15.4246C7.1034 15.3465 7.15862 15.2482 7.1846 15.1406C7.1966 15.089 7.2002 15.0086 7.2002 14.6402V11.7602C7.2002 11.3918 7.1966 11.3126 7.1834 11.261C7.15771 11.1534 7.10276 11.0549 7.02461 10.9765C6.94647 10.8982 6.84817 10.843 6.7406 10.817C6.689 10.805 6.6086 10.8002 6.2402 10.8002H3.3602ZM11.7602 10.8002C11.3918 10.8002 11.3126 10.8038 11.261 10.817C11.1532 10.8428 11.0547 10.8979 10.9763 10.9763C10.8979 11.0547 10.8428 11.1532 10.817 11.261C10.805 11.3126 10.8002 11.393 10.8002 11.7602V14.6402C10.8002 15.0098 10.8038 15.089 10.817 15.1406C10.8428 15.2484 10.8979 15.3469 10.9763 15.4253C11.0547 15.5037 11.1532 15.5588 11.261 15.5846C11.3126 15.5966 11.393 15.6002 11.7602 15.6002H14.6402C15.0098 15.6002 15.089 15.5966 15.1406 15.5834C15.2482 15.5577 15.3467 15.5028 15.425 15.4246C15.5034 15.3465 15.5586 15.2482 15.5846 15.1406C15.5966 15.089 15.6002 15.0086 15.6002 14.6402V11.7602C15.6002 11.3918 15.5954 11.3126 15.5834 11.261C15.5577 11.1534 15.5028 11.0549 15.4246 10.9765C15.3465 10.8982 15.2482 10.843 15.1406 10.817C15.089 10.805 15.0086 10.8002 14.6402 10.8002H11.7602ZM6.3002 1.2002C6.5738 1.2002 6.8114 1.2002 7.0202 1.2506C7.34313 1.32764 7.63847 1.4925 7.87354 1.72694C8.10862 1.96138 8.27428 2.25627 8.3522 2.579C8.4002 2.789 8.4002 3.0266 8.4002 3.3002V6.3002C8.4002 6.5738 8.4002 6.8114 8.351 7.0202C8.27376 7.34343 8.10854 7.63898 7.87365 7.87408C7.63876 8.10918 7.34336 8.27467 7.0202 8.3522C6.8114 8.4002 6.5738 8.4002 6.3002 8.4002H3.3002C3.0266 8.4002 2.789 8.4002 2.5802 8.351C2.25718 8.27356 1.96189 8.10826 1.72701 7.87338C1.49213 7.6385 1.32683 7.34321 1.2494 7.0202C1.2002 6.8114 1.2002 6.5738 1.2002 6.3002V3.3002C1.2002 3.0266 1.2002 2.789 1.2506 2.5802C1.32803 2.2577 1.49306 1.96287 1.72748 1.72825C1.96189 1.49362 2.25657 1.32832 2.579 1.2506C2.789 1.2002 3.0266 1.2002 3.3002 1.2002H6.3002ZM14.7002 1.2002C14.9738 1.2002 15.2114 1.2002 15.4202 1.2506C15.7429 1.32784 16.038 1.49278 16.2728 1.72721C16.5077 1.96164 16.6732 2.25642 16.751 2.579C16.8014 2.789 16.8002 3.0266 16.8002 3.3002V6.3002C16.8002 6.5738 16.8002 6.8114 16.751 7.0202C16.6738 7.34343 16.5085 7.63898 16.2737 7.87408C16.0388 8.10918 15.7434 8.27467 15.4202 8.3522C15.2114 8.4002 14.9738 8.4002 14.7002 8.4002H11.7002C11.4266 8.4002 11.189 8.4002 10.9802 8.351C10.6572 8.27356 10.3619 8.10826 10.127 7.87338C9.89213 7.6385 9.72683 7.34321 9.6494 7.0202C9.6002 6.8114 9.6002 6.5738 9.6002 6.3002V3.3002C9.6002 3.0266 9.6002 2.789 9.6506 2.5802C9.72803 2.2577 9.89307 1.96287 10.1275 1.72825C10.3619 1.49362 10.6566 1.32832 10.979 1.2506C11.189 1.2002 11.4266 1.2002 11.7002 1.2002H14.7002ZM3.3602 2.4002C2.9918 2.4002 2.9126 2.4038 2.861 2.417C2.7532 2.44277 2.65465 2.49791 2.57628 2.57628C2.49791 2.65465 2.44277 2.7532 2.417 2.861C2.405 2.9126 2.4002 2.993 2.4002 3.3602V6.2402C2.4002 6.6098 2.4038 6.689 2.417 6.7406C2.44277 6.84839 2.49791 6.94694 2.57628 7.02531C2.65465 7.10369 2.7532 7.15882 2.861 7.1846C2.9126 7.1966 2.993 7.2002 3.3602 7.2002H6.2402C6.6098 7.2002 6.689 7.1966 6.7406 7.1834C6.84824 7.15771 6.94669 7.10276 7.02504 7.02461C7.1034 6.94647 7.15862 6.84817 7.1846 6.7406C7.1966 6.689 7.2002 6.6086 7.2002 6.2402V3.3602C7.2002 2.9918 7.1966 2.9126 7.1834 2.861C7.15771 2.75335 7.10276 2.65491 7.02461 2.57655C6.94647 2.49819 6.84817 2.44297 6.7406 2.417C6.689 2.405 6.6086 2.4002 6.2402 2.4002H3.3602ZM11.7602 2.4002C11.3918 2.4002 11.3126 2.4038 11.261 2.417C11.1532 2.44277 11.0547 2.49791 10.9763 2.57628C10.8979 2.65465 10.8428 2.7532 10.817 2.861C10.805 2.9126 10.8002 2.993 10.8002 3.3602V6.2402C10.8002 6.6098 10.8038 6.689 10.817 6.7406C10.8428 6.84839 10.8979 6.94694 10.9763 7.02531C11.0547 7.10369 11.1532 7.15882 11.261 7.1846C11.3126 7.1966 11.393 7.2002 11.7602 7.2002H14.6402C15.0098 7.2002 15.089 7.1966 15.1406 7.1834C15.2482 7.15771 15.3467 7.10276 15.425 7.02461C15.5034 6.94647 15.5586 6.84817 15.5846 6.7406C15.5966 6.689 15.6002 6.6086 15.6002 6.2402V3.3602C15.6002 2.9918 15.5954 2.9126 15.5834 2.861C15.5577 2.75335 15.5028 2.65491 15.4246 2.57655C15.3465 2.49819 15.2482 2.44297 15.1406 2.417C15.089 2.405 15.0086 2.4002 14.6402 2.4002H11.7602Z"  />
</svg>
