<svg width="20" height="15" viewBox="0 0 20 15" fill="none" xmlns="http://www.w3.org/2000/svg">
<path d="M6 0H3.3C2.42479 0 1.58542 0.347677 0.966548 0.966548C0.347678 1.58542 0 2.42479 0 3.3V6H2.7216C2.45748 5.54247 2.35171 5.01057 2.42069 4.4868C2.48966 3.96303 2.72953 3.47665 3.10309 3.10309C3.47665 2.72953 3.96303 2.48966 4.4868 2.42069C5.01057 2.35171 5.54247 2.45749 6 2.7216V0ZM7.2 4.8V6H8.4C8.63734 6 8.86934 5.92962 9.06668 5.79776C9.26402 5.66591 9.41783 5.47849 9.50865 5.25922C9.59948 5.03995 9.62324 4.79867 9.57694 4.56589C9.53064 4.33312 9.41635 4.1193 9.24853 3.95147C9.0807 3.78365 8.86688 3.66936 8.63411 3.62306C8.40133 3.57676 8.16005 3.60052 7.94078 3.69134C7.72151 3.78217 7.53409 3.93598 7.40224 4.13332C7.27038 4.33066 7.2 4.56266 7.2 4.8ZM10.4784 6C10.7425 5.54247 10.8483 5.01057 10.7793 4.4868C10.7103 3.96303 10.4705 3.47665 10.0969 3.10309C9.72335 2.72953 9.23697 2.48966 8.7132 2.42069C8.18943 2.35171 7.65753 2.45749 7.2 2.7216V0H15.9C16.7752 0 17.6146 0.347677 18.2334 0.966548C18.8523 1.58542 19.2 2.42479 19.2 3.3V6H10.4784ZM8.0484 7.2L10.0248 9.1752C10.1375 9.28786 10.2008 9.44067 10.2008 9.6C10.2008 9.75933 10.1375 9.91214 10.0248 10.0248C9.91213 10.1375 9.75933 10.2008 9.6 10.2008C9.44067 10.2008 9.28786 10.1375 9.1752 10.0248L7.2 8.0484V14.4H15.9C16.7752 14.4 17.6146 14.0523 18.2334 13.4335C18.8523 12.8146 19.2 11.9752 19.2 11.1V7.2H8.0484ZM6 14.4V8.0484L4.0248 10.0248C3.91214 10.1375 3.75933 10.2008 3.6 10.2008C3.44067 10.2008 3.28786 10.1375 3.1752 10.0248C3.06254 9.91214 2.99924 9.75933 2.99924 9.6C2.99924 9.44067 3.06254 9.28786 3.1752 9.1752L5.1516 7.2H0V11.1C0 11.9752 0.347678 12.8146 0.966548 13.4335C1.58542 14.0523 2.42479 14.4 3.3 14.4H6ZM6 4.8C6 4.56266 5.92962 4.33066 5.79776 4.13332C5.6659 3.93598 5.47849 3.78217 5.25922 3.69134C5.03995 3.60052 4.79867 3.57676 4.56589 3.62306C4.33311 3.66936 4.11929 3.78365 3.95147 3.95147C3.78365 4.1193 3.66936 4.33312 3.62306 4.56589C3.57675 4.79867 3.60052 5.03995 3.69134 5.25922C3.78217 5.47849 3.93598 5.66591 4.13332 5.79776C4.33065 5.92962 4.56266 6 4.8 6H6V4.8Z" />
</svg>
