<svg width="19" height="22" viewBox="0 0 19 22" fill="none" xmlns="http://www.w3.org/2000/svg">
<path d="M6.84341 19.873C6.84341 20.1523 6.9007 20.4209 7.01528 20.6787C7.12986 20.9365 7.28384 21.1621 7.47719 21.3555C7.67055 21.5488 7.89614 21.7064 8.15395 21.8281C8.41177 21.9499 8.68032 22.0072 8.95962 22H2.07387C1.78742 22 1.51886 21.9463 1.26821 21.8389C1.01756 21.7314 0.799134 21.5846 0.612937 21.3984C0.426739 21.2122 0.276348 20.9938 0.161765 20.7432C0.0471814 20.4925 -0.00652956 20.224 0.000631893 19.9375C0.000631893 19.7441 0.025697 19.5615 0.0758272 19.3896C0.125957 19.2178 0.201153 19.0459 0.301413 18.874L6.41372 8.23926C6.48533 8.11035 6.52114 7.98503 6.52114 7.86328V1.375H5.14614V0H13.3961V1.375H12.0211V5.51074H11.903C11.6666 5.51074 11.4518 5.53223 11.2584 5.5752C11.0651 5.61816 10.861 5.71484 10.6461 5.86523V1.375H7.89614V7.86328C7.89614 8.23568 7.79588 8.59375 7.59536 8.9375L4.05044 15.125H9.27114L7.13344 18.8633C7.04035 19.028 6.96873 19.1891 6.9186 19.3467C6.86847 19.5042 6.84341 19.6797 6.84341 19.873ZM18.2409 18.8955C18.3411 19.0602 18.4163 19.2249 18.4665 19.3896C18.5166 19.5544 18.5416 19.737 18.5416 19.9375C18.5416 20.224 18.4879 20.4925 18.3805 20.7432C18.2731 20.9938 18.1263 21.2122 17.9401 21.3984C17.7539 21.5846 17.5319 21.7314 17.2741 21.8389C17.0163 21.9463 16.7513 22 16.4791 22H8.95962C9.31053 22 9.64712 21.9105 9.96938 21.7314C10.2916 21.5524 10.5459 21.3089 10.7321 21.001L13.8473 15.6191C13.8903 15.8626 13.9798 16.0846 14.1159 16.2852C14.2519 16.4857 14.4166 16.6576 14.61 16.8008C14.8034 16.944 15.0146 17.0586 15.2438 17.1445C15.473 17.2305 15.7093 17.2699 15.9528 17.2627C16.3681 17.2627 16.7549 17.1481 17.1129 16.9189L18.2409 18.8955ZM18.1764 10.5273C18.3769 10.5273 18.5452 10.6025 18.6813 10.7529C18.8174 10.9033 18.889 11.0788 18.8961 11.2793C18.8961 11.3796 18.8675 11.4798 18.8102 11.5801L16.5329 15.5547C16.404 15.7767 16.2106 15.8877 15.9528 15.8877C15.7451 15.8877 15.5625 15.8197 15.4049 15.6836C15.2474 15.5475 15.1686 15.3721 15.1686 15.1572C15.1686 15.0283 15.1937 14.9209 15.2438 14.835C15.2939 14.749 15.3584 14.6559 15.4372 14.5557L13.5143 13.4492L9.53969 20.3135C9.4824 20.4137 9.40005 20.4889 9.29262 20.5391C9.1852 20.5892 9.07062 20.6178 8.94887 20.625C8.84861 20.625 8.75552 20.6035 8.66958 20.5605C8.58364 20.5176 8.50844 20.4603 8.44399 20.3887C8.37954 20.3171 8.32583 20.2347 8.28286 20.1416C8.23989 20.0485 8.21841 19.9554 8.21841 19.8623C8.21841 19.762 8.24705 19.6654 8.30434 19.5723L12.236 12.7188L10.3561 11.623C10.2988 11.709 10.2487 11.7878 10.2057 11.8594C10.1627 11.931 10.1198 11.9919 10.0768 12.042C10.0338 12.0921 9.97296 12.1351 9.89419 12.1709C9.81541 12.2067 9.72589 12.2246 9.62563 12.2246C9.41795 12.2246 9.23175 12.1602 9.06704 12.0312C8.90232 11.9023 8.81997 11.7269 8.81997 11.5049C8.81997 11.4548 8.82355 11.3975 8.83071 11.333C8.83787 11.2686 8.85936 11.2148 8.89516 11.1719L11.2262 7.19727C11.2835 7.09701 11.3659 7.01823 11.4733 6.96094C11.5807 6.90365 11.6953 6.875 11.817 6.875C12.0176 6.875 12.1966 6.9502 12.3541 7.10059C12.5117 7.25098 12.5905 7.42643 12.5905 7.62695C12.5905 7.7487 12.5618 7.84896 12.5045 7.92773C12.4472 8.00651 12.3864 8.09603 12.3219 8.19629L17.403 11.1182C17.5104 10.9606 17.6107 10.8245 17.7038 10.71C17.7969 10.5954 17.9544 10.5345 18.1764 10.5273Z" />
</svg>
