<svg width="120" height="120" viewBox="0 0 120 120" fill="none" xmlns="http://www.w3.org/2000/svg">
<g opacity="0.8">
<path d="M99.9941 39.9978H19.9987C17.2375 39.9978 14.999 42.2362 14.999 44.9975V54.9969C14.999 57.7582 17.2375 59.9966 19.9987 59.9966H99.9941C102.755 59.9966 104.994 57.7582 104.994 54.9969V44.9975C104.994 42.2362 102.755 39.9978 99.9941 39.9978Z" stroke="#10B981" stroke-width="7.49956" stroke-linecap="round" stroke-linejoin="round"/>
<path d="M59.9966 39.9978V104.994" stroke="#10B981" stroke-width="7.49956" stroke-linecap="round" stroke-linejoin="round"/>
<path d="M94.9944 59.9966V94.9945C94.9944 97.6465 93.9409 100.19 92.0657 102.065C90.1904 103.94 87.647 104.994 84.995 104.994H34.9979C32.3459 104.994 29.8025 103.94 27.9273 102.065C26.052 100.19 24.9985 97.6465 24.9985 94.9945V59.9966" stroke="#10B981" stroke-width="7.49956" stroke-linecap="round" stroke-linejoin="round"/>
<path d="M37.4978 39.9976C34.1828 39.9976 31.0036 38.6807 28.6595 36.3366C26.3154 33.9925 24.9985 30.8133 24.9985 27.4983C24.9985 24.1833 26.3154 21.004 28.6595 18.66C31.0036 16.3159 34.1828 14.999 37.4978 14.999C42.3209 14.915 47.0474 17.2552 51.0607 21.7144C55.074 26.1737 58.188 32.545 59.9965 39.9976C61.805 32.545 64.919 26.1737 68.9323 21.7144C72.9456 17.2552 77.672 14.915 82.4952 14.999C85.8102 14.999 88.9894 16.3159 91.3335 18.66C93.6776 21.004 94.9944 24.1833 94.9944 27.4983C94.9944 30.8133 93.6776 33.9925 91.3335 36.3366C88.9894 38.6807 85.8102 39.9976 82.4952 39.9976" stroke="#10B981" stroke-width="7.49956" stroke-linecap="round" stroke-linejoin="round"/>
</g>
</svg>
