<svg width="206" height="150" viewBox="0 0 206 150" fill="none" xmlns="http://www.w3.org/2000/svg">
<g clip-path="url(#clip0_542_2665)">
<path d="M200.357 133.895C199.667 128.683 196.394 123.569 191.405 121.911C193.41 127.265 193.456 133.155 191.536 138.539C190.788 140.613 189.74 142.842 190.475 144.92C190.933 146.214 192.035 147.197 193.264 147.808C194.492 148.418 195.852 148.703 197.195 148.982L197.461 149.199C199.551 144.375 201.047 139.106 200.357 133.895Z" fill="#F0F0F0"/>
<path d="M191.357 122.011C194.28 125.234 196.112 129.296 196.595 133.62C196.716 134.55 196.689 135.492 196.516 136.413C196.318 137.304 195.886 138.126 195.263 138.794C194.695 139.428 194.04 140.011 193.636 140.773C193.435 141.165 193.319 141.596 193.296 142.037C193.274 142.478 193.344 142.918 193.503 143.33C193.874 144.365 194.594 145.206 195.327 146.004C196.141 146.89 197 147.797 197.353 148.977C197.395 149.12 197.615 149.045 197.572 148.902C196.959 146.849 194.952 145.696 193.985 143.85C193.533 142.989 193.339 141.986 193.748 141.07C194.107 140.269 194.781 139.667 195.362 139.03C195.979 138.388 196.429 137.604 196.674 136.747C196.893 135.838 196.956 134.898 196.86 133.968C196.677 131.871 196.166 129.815 195.345 127.877C194.42 125.659 193.122 123.616 191.509 121.836C191.409 121.726 191.257 121.901 191.357 122.011Z" fill="white"/>
<path d="M196.522 132.219C197.237 132.039 197.864 131.612 198.292 131.012C198.721 130.413 198.922 129.681 198.86 128.947C198.847 128.798 198.616 128.811 198.629 128.96C198.688 129.644 198.5 130.326 198.1 130.883C197.7 131.44 197.114 131.836 196.448 132C196.303 132.035 196.378 132.254 196.522 132.219Z" fill="white"/>
<path d="M195.593 138.51C194.294 137.748 193.33 136.525 192.893 135.084C192.85 134.941 192.63 135.015 192.674 135.158C193.131 136.657 194.137 137.928 195.491 138.718C195.62 138.793 195.722 138.585 195.593 138.51Z" fill="white"/>
<path d="M194.207 125.88C193.945 126.007 193.656 126.067 193.365 126.055C193.074 126.042 192.791 125.958 192.54 125.809C192.412 125.732 192.311 125.94 192.438 126.016C192.715 126.18 193.028 126.273 193.349 126.287C193.671 126.302 193.991 126.237 194.281 126.1C194.31 126.089 194.333 126.068 194.347 126.04C194.36 126.013 194.363 125.982 194.354 125.953C194.344 125.924 194.323 125.9 194.295 125.886C194.268 125.873 194.236 125.87 194.207 125.88L194.207 125.88Z" fill="white"/>
<path d="M176.315 131.349C176.394 131.399 176.472 131.449 176.551 131.501C177.604 132.182 178.6 132.947 179.529 133.789C179.602 133.853 179.675 133.919 179.746 133.985C181.963 136.037 183.78 138.483 185.104 141.199C185.63 142.28 186.073 143.4 186.429 144.548C186.921 146.134 187.328 147.893 188.287 149.185C188.385 149.321 188.492 149.451 188.607 149.574L197.177 149.506C197.196 149.496 197.216 149.488 197.235 149.478L197.577 149.491C197.563 149.431 197.547 149.368 197.533 149.308C197.525 149.273 197.515 149.237 197.507 149.202C197.501 149.179 197.495 149.155 197.491 149.134C197.489 149.126 197.486 149.118 197.485 149.113C197.48 149.091 197.474 149.072 197.47 149.052C197.382 148.703 197.29 148.353 197.196 148.004C197.196 148.002 197.196 148.002 197.194 148C196.503 145.332 195.498 142.755 194.2 140.323C194.16 140.251 194.121 140.177 194.077 140.105C193.477 139.029 192.789 138.004 192.021 137.04C191.599 136.513 191.151 136.008 190.678 135.527C189.453 134.286 188.04 133.245 186.492 132.443C183.405 130.845 179.842 130.251 176.565 131.269C176.481 131.295 176.399 131.321 176.315 131.349Z" fill="#F0F0F0"/>
<path d="M176.335 131.457C180.609 132.271 184.519 134.411 187.507 137.573C188.163 138.242 188.709 139.011 189.125 139.85C189.504 140.681 189.654 141.598 189.559 142.506C189.487 143.354 189.315 144.214 189.451 145.065C189.527 145.5 189.694 145.914 189.941 146.279C190.188 146.645 190.509 146.954 190.884 147.187C191.804 147.791 192.885 148.028 193.951 148.224C195.134 148.441 196.366 148.648 197.358 149.378C197.478 149.467 197.608 149.275 197.488 149.187C195.763 147.916 193.466 148.204 191.582 147.313C190.703 146.897 189.944 146.213 189.72 145.235C189.523 144.38 189.7 143.493 189.78 142.635C189.886 141.75 189.773 140.853 189.453 140.022C189.08 139.164 188.565 138.376 187.928 137.691C186.52 136.126 184.874 134.793 183.051 133.74C180.977 132.526 178.711 131.676 176.351 131.226C176.205 131.198 176.19 131.43 176.335 131.457Z" fill="white"/>
<path d="M186.605 136.498C187.068 135.924 187.311 135.205 187.292 134.469C187.273 133.732 186.993 133.026 186.502 132.477C186.402 132.367 186.226 132.516 186.326 132.627C186.784 133.138 187.045 133.795 187.061 134.481C187.077 135.167 186.847 135.836 186.414 136.367C186.32 136.483 186.512 136.613 186.605 136.498Z" fill="white"/>
<path d="M189.652 142.081C188.156 142.255 186.649 141.858 185.433 140.971C185.312 140.883 185.182 141.074 185.302 141.162C186.57 142.084 188.139 142.493 189.695 142.308C189.843 142.291 189.799 142.063 189.652 142.081Z" fill="white"/>
<path d="M180.941 132.831C180.808 133.09 180.613 133.312 180.373 133.477C180.133 133.642 179.856 133.746 179.567 133.777C179.418 133.793 179.463 134.02 179.61 134.005C179.93 133.968 180.236 133.854 180.501 133.672C180.766 133.49 180.983 133.246 181.132 132.961C181.148 132.935 181.154 132.904 181.149 132.875C181.143 132.845 181.126 132.818 181.102 132.8C181.076 132.783 181.045 132.777 181.015 132.782C180.985 132.788 180.958 132.805 180.941 132.831L180.941 132.831Z" fill="white"/>
<path d="M143.879 81.4673C144.028 81.6633 144.218 81.8242 144.436 81.9388C144.654 82.0533 144.895 82.1187 145.141 82.1303C145.387 82.1419 145.632 82.0994 145.86 82.0059C146.087 81.9123 146.292 81.77 146.459 81.5889L151.947 83.9757L151.412 80.9121L146.283 79.1152C145.96 78.8552 145.553 78.7227 145.139 78.7427C144.725 78.7627 144.332 78.9339 144.036 79.2238C143.74 79.5137 143.56 79.9022 143.531 80.3157C143.503 80.7292 143.626 81.1389 143.879 81.4673V81.4673Z" fill="#A0616A"/>
<path d="M148.873 79.7364L159.356 81.0951L170.168 74.5824C170.746 74.2341 171.391 74.0123 172.061 73.9314C172.732 73.8505 173.411 73.9125 174.056 74.1133C174.7 74.314 175.295 74.649 175.8 75.0961C176.306 75.5432 176.711 76.0923 176.989 76.7074C177.491 77.8205 177.548 79.0834 177.149 80.2373C176.751 81.3913 175.926 82.3492 174.843 82.9147L160.315 88.0917L160.288 88.1015L147.542 82.4237L148.873 79.7364Z" fill="#3F3D56"/>
<path d="M175.665 147.537H173.436L172.376 138.94L175.665 138.941L175.665 147.537Z" fill="#A0616A"/>
<path d="M176.233 149.697L169.047 149.697V149.606C169.047 148.864 169.342 148.153 169.867 147.629C170.391 147.104 171.103 146.809 171.844 146.809H171.845L173.157 145.813L175.606 146.809L176.234 146.809L176.233 149.697Z" fill="#2F2E41"/>
<path d="M167.029 146.132L164.855 146.623L161.927 138.472L165.136 137.747L167.029 146.132Z" fill="#A0616A"/>
<path d="M168.059 148.115L161.05 149.697L161.03 149.609C160.866 148.885 160.997 148.126 161.393 147.499C161.789 146.872 162.418 146.428 163.142 146.264L163.142 146.264L164.203 145.004L166.811 145.436L167.423 145.298L168.059 148.115Z" fill="#2F2E41"/>
<path d="M178.488 94.9844C179.533 98.1357 179.422 101.556 178.237 105.228L177.73 125.899C177.73 125.899 178.485 139.454 176.048 144.224H172.515L170.765 124.661L170.545 111.53L162.969 122.608L167.795 143.904L163.445 144.293L155.615 121.181L165.276 98.7591L178.488 94.9844Z" fill="#2F2E41"/>
<path d="M164.183 98.0312L165.054 95.8527L164.478 93.9796L164.347 75.8299L164.346 75.8161L166.438 72.4815L166.455 70.3724L172.294 70.23L172.927 71.8381L174.18 72.5873C175.546 73.4067 176.673 74.5714 177.446 75.9644C178.219 77.3573 178.612 78.9292 178.584 80.5221L178.358 92.7677L178.941 93.9333C179.099 94.2497 179.187 94.5967 179.199 94.9504C179.21 95.3041 179.145 95.6561 179.008 95.9822C178.87 96.3083 178.664 96.6009 178.403 96.8398C178.142 97.0787 177.832 97.2583 177.495 97.3662L164.646 99.4215L164.183 98.0312Z" fill="#3F3D56"/>
<path d="M168.84 68.2302C171.77 68.2302 174.145 65.8548 174.145 62.9247C174.145 59.9945 171.77 57.6191 168.84 57.6191C165.91 57.6191 163.534 59.9945 163.534 62.9247C163.534 65.8548 165.91 68.2302 168.84 68.2302Z" fill="#A0616A"/>
<path d="M174.364 64.0811C174.522 63.4144 174.45 62.4763 174.36 61.8051C174.246 60.9199 173.947 60.0688 173.482 59.3067C173.017 58.5446 172.398 57.8887 171.664 57.3813C171.382 57.1675 171.048 57.0345 170.696 56.9968C170.521 56.982 170.345 57.0232 170.194 57.1144C170.043 57.2057 169.925 57.3423 169.856 57.5048C169.768 57.2839 169.635 57.0835 169.466 56.916C169.297 56.7485 169.096 56.6174 168.874 56.5307C168.429 56.3602 167.95 56.2957 167.476 56.3424C166.556 56.4182 165.675 56.7415 164.924 57.278C164.174 57.8145 163.582 58.5442 163.213 59.3897C163.071 59.7263 162.675 58.4828 162.496 58.8009C162.331 59.1315 162.043 59.3845 161.694 59.5055C161.342 59.6037 161.199 61.0532 161.061 60.7152C160.953 60.965 160.911 61.2379 160.937 61.5086C160.964 61.7792 161.058 62.0387 161.212 62.263C161.366 62.4872 161.574 62.6689 161.817 62.7911C162.06 62.9134 162.33 62.9721 162.601 62.962C162.956 62.916 163.308 62.8486 163.656 62.7602C164.293 62.6799 164.937 62.8356 165.468 63.1981C165.998 63.5605 166.377 64.1046 166.533 64.7275C166.63 64.3652 166.785 64.021 166.992 63.7081C167.096 63.5525 167.237 63.4242 167.401 63.3338C167.566 63.2434 167.75 63.1937 167.937 63.1886C168.117 63.2092 168.29 63.2662 168.446 63.3561C168.603 63.4461 168.739 63.5671 168.847 63.7117C169.081 63.9859 169.256 64.3059 169.491 64.5787C170.182 65.3791 171.116 67.2456 172.1 67.1095C172.876 67.0021 174.148 64.9913 174.364 64.0811Z" fill="#2F2E41"/>
<path d="M149.061 95.5485C149.287 95.6466 149.531 95.694 149.777 95.6874C150.023 95.6808 150.265 95.6202 150.485 95.5101C150.705 95.4 150.899 95.2429 151.052 95.0499C151.205 94.857 151.313 94.6328 151.37 94.3933L157.324 93.7918L155.36 91.3809L150.007 92.3217C149.598 92.2528 149.178 92.3361 148.827 92.556C148.476 92.7759 148.217 93.1171 148.101 93.5148C147.984 93.9126 148.017 94.3393 148.194 94.7141C148.371 95.089 148.68 95.3858 149.061 95.5485Z" fill="#A0616A"/>
<path d="M152.57 91.5972L162.38 87.656L168.626 76.6883C168.96 76.1018 169.414 75.5926 169.959 75.1944C170.504 74.7962 171.127 74.5179 171.788 74.3779C172.448 74.2379 173.13 74.2393 173.79 74.382C174.45 74.5248 175.072 74.8057 175.615 75.2061C176.597 75.9318 177.265 77.0053 177.481 78.207C177.697 79.4087 177.446 80.6476 176.779 81.6701L166.638 93.29L166.619 93.3119L152.723 94.5922L152.57 91.5972Z" fill="#3F3D56"/>
<path d="M205.353 150H116.798C116.758 150 116.718 149.992 116.681 149.977C116.644 149.962 116.611 149.939 116.583 149.911C116.554 149.883 116.532 149.85 116.517 149.813C116.502 149.776 116.494 149.736 116.494 149.697C116.494 149.657 116.502 149.617 116.517 149.58C116.532 149.544 116.554 149.51 116.583 149.482C116.611 149.454 116.644 149.432 116.681 149.416C116.718 149.401 116.758 149.393 116.798 149.394H205.353C205.392 149.393 205.432 149.401 205.469 149.416C205.506 149.432 205.539 149.454 205.567 149.482C205.596 149.51 205.618 149.544 205.633 149.58C205.649 149.617 205.656 149.657 205.656 149.697C205.656 149.736 205.649 149.776 205.633 149.813C205.618 149.85 205.596 149.883 205.567 149.911C205.539 149.939 205.506 149.962 205.469 149.977C205.432 149.992 205.392 150 205.353 150Z" fill="#CCCCCC"/>
<path d="M148.122 100.722H107.88C107.599 100.722 107.33 100.61 107.132 100.412C106.934 100.214 106.822 99.9449 106.822 99.6644V83.3356C106.822 83.0552 106.934 82.7863 107.132 82.588C107.33 82.3897 107.599 82.2782 107.88 82.2778H148.122C148.403 82.2782 148.672 82.3897 148.87 82.588C149.068 82.7863 149.18 83.0552 149.18 83.3356V99.6644C149.18 99.9449 149.068 100.214 148.87 100.412C148.672 100.61 148.403 100.722 148.122 100.722Z" fill="#10B981"/>
<path d="M144.291 108.555H111.712C111.545 108.556 111.379 108.523 111.225 108.459C111.071 108.396 110.931 108.302 110.813 108.184C110.695 108.066 110.601 107.926 110.537 107.772C110.473 107.618 110.44 107.453 110.44 107.286C110.44 107.119 110.473 106.954 110.537 106.8C110.601 106.646 110.695 106.506 110.813 106.388C110.931 106.27 111.071 106.177 111.225 106.113C111.379 106.049 111.545 106.017 111.712 106.017H144.291C145.928 105.994 145.944 108.578 144.291 108.555Z" fill="#E4E4E4"/>
<path d="M144.291 114.373H111.712C111.375 114.373 111.052 114.239 110.814 114.001C110.576 113.763 110.442 113.44 110.442 113.103C110.442 112.767 110.576 112.444 110.814 112.206C111.052 111.968 111.375 111.834 111.712 111.834H144.291C145.928 111.811 145.944 114.396 144.291 114.373Z" fill="#E4E4E4"/>
<path d="M144.291 120.191H111.712C111.545 120.191 111.379 120.158 111.225 120.095C111.071 120.031 110.931 119.937 110.813 119.819C110.695 119.702 110.601 119.562 110.537 119.407C110.473 119.253 110.44 119.088 110.44 118.921C110.44 118.754 110.473 118.589 110.537 118.435C110.601 118.281 110.695 118.141 110.813 118.023C110.931 117.905 111.071 117.812 111.225 117.748C111.379 117.684 111.545 117.652 111.712 117.652H144.291C145.928 117.629 145.944 120.214 144.291 120.191Z" fill="#E4E4E4"/>
<path d="M7.3826 57.4128C0.298322 48.1048 -2.55553 34.8982 2.71763 24.457C7.95036 36.0513 17.1155 45.421 28.5915 50.9084C33.0249 53.0086 38.1747 54.8829 40.2734 59.3172C41.5792 62.0762 41.3817 65.3575 40.4006 68.2479C39.4194 71.1385 37.7193 73.7215 36.037 76.2687L35.9568 77.0265C25.0923 72.692 14.4669 66.7208 7.3826 57.4128Z" fill="#F0F0F0"/>
<path d="M2.94961 24.537C3.38381 34.1073 6.87826 43.6008 12.8897 51.0785C14.1894 52.6951 15.6485 54.222 17.394 55.3612C19.1039 56.4586 21.0765 57.0781 23.1068 57.1553C24.9984 57.2654 26.9461 57.1589 28.778 57.7268C30.709 58.3255 32.148 59.744 32.9978 61.5547C34.0376 63.7701 34.2193 66.2271 34.3135 68.6359C34.4181 71.3105 34.4844 74.0902 35.7791 76.5054C35.936 76.7981 35.4727 77.0244 35.3161 76.7322C33.0636 72.5301 34.4228 67.5626 33.0546 63.1318C32.4161 61.0644 31.1507 59.1768 29.0674 58.3728C27.2455 57.6698 25.237 57.7779 23.3207 57.683C21.3086 57.5834 19.4243 57.1579 17.6695 56.1369C15.8743 55.0924 14.3525 53.6194 13.0172 52.0431C10.0159 48.446 7.59881 44.3994 5.85454 40.0514C3.8363 35.1002 2.6799 29.8402 2.43538 24.4991C2.42038 24.1685 2.93471 24.2085 2.94961 24.537L2.94961 24.537Z" fill="white"/>
<path d="M10.8073 48.751C9.39798 49.5884 7.73688 49.8975 6.12066 49.6232C4.50444 49.3489 3.03836 48.509 1.98422 47.2536C1.77179 46.9988 2.1577 46.6567 2.37041 46.9118C3.34986 48.0827 4.71561 48.8649 6.22115 49.1173C7.72669 49.3696 9.27285 49.0755 10.5806 48.288C10.865 48.1172 11.0901 48.5812 10.8073 48.751Z" fill="white"/>
<path d="M22.1401 57.226C22.9959 53.9859 22.599 50.5424 21.0287 47.582C20.8728 47.2888 21.336 47.0625 21.4917 47.3553C23.1201 50.439 23.5258 54.0233 22.6278 57.393C22.542 57.7141 22.0548 57.5453 22.1401 57.2259V57.226Z" fill="white"/>
<path d="M4.51995 35.1151C5.13276 34.9047 5.68373 34.5454 6.12337 34.0695C6.56302 33.5936 6.87757 33.0159 7.03879 32.3884C7.12047 32.0663 7.60767 32.2355 7.52651 32.5554C7.34517 33.2479 6.997 33.8855 6.51242 34.4124C6.02785 34.9393 5.42161 35.3395 4.74668 35.5781C4.68495 35.6059 4.61494 35.6092 4.55088 35.5872C4.48682 35.5653 4.43352 35.5198 4.40181 35.46C4.3721 35.3985 4.36784 35.3278 4.38996 35.2632C4.41208 35.1987 4.45879 35.1454 4.51995 35.1151Z" fill="white"/>
<path d="M41.3384 15.6851C41.2931 15.8876 41.2479 16.0901 41.2055 16.2959C40.6106 19.0222 40.2383 21.7922 40.092 24.5787C40.0773 24.7939 40.0656 25.0123 40.0571 25.2276C39.7763 31.9446 40.7451 38.6555 42.9141 45.0189C43.7796 47.5503 44.8363 50.0121 46.0753 52.3832C47.7865 55.6576 49.9024 59.0717 50.4169 62.6158C50.4747 62.985 50.5096 63.3574 50.5214 63.7309L36.8873 77.0653C36.8411 77.0801 36.7978 77.0981 36.7514 77.113L36.2314 77.6703C36.159 77.5525 36.0864 77.4287 36.0139 77.3109C35.9716 77.2427 35.9324 77.1716 35.8901 77.1034C35.8628 77.057 35.8357 77.0105 35.8085 76.9702C35.7994 76.9548 35.7904 76.9392 35.7843 76.9269C35.7571 76.8866 35.736 76.8463 35.7119 76.8091C35.3041 76.1184 34.9006 75.4237 34.5011 74.7249C34.4981 74.7218 34.4981 74.7218 34.4981 74.7157C31.4683 69.3836 28.857 63.7517 27.1835 57.9025C27.1332 57.7265 27.0797 57.5475 27.0356 57.3654C26.2959 54.7247 25.7733 52.0279 25.473 49.302C25.3133 47.8089 25.2294 46.3086 25.2214 44.807C25.2083 40.9269 25.8056 37.069 26.9914 33.3746C29.3563 26.0102 34.0502 19.4841 40.8187 15.95C40.9919 15.8597 41.1622 15.7722 41.3384 15.6851Z" fill="#F0F0F0"/>
<path d="M41.4773 15.8879C36.062 23.7907 33.1363 33.4747 33.4341 43.0645C33.4985 45.1378 33.7443 47.2354 34.452 49.1959C35.1566 51.1016 36.3586 52.7839 37.9332 54.0679C39.3773 55.2946 40.9965 56.3822 42.1172 57.9387C43.2986 59.5792 43.5935 61.5782 43.1819 63.5356C42.6782 65.9305 41.3441 68.0017 39.969 69.9818C38.4422 72.1802 36.8216 74.4396 36.4012 77.1475C36.3503 77.4756 35.8441 77.3774 35.895 77.0498C36.6264 72.3385 40.7025 69.1906 42.2776 64.8291C43.0126 62.7939 43.1388 60.5249 41.9593 58.6287C40.928 56.9705 39.2592 55.8475 37.7863 54.618C36.2397 53.3271 34.9914 51.8528 34.205 49.9811C33.4005 48.0664 33.0722 45.974 32.9551 43.9114C32.7244 39.2323 33.2309 34.5461 34.4559 30.0243C35.8255 24.8559 38.069 19.9599 41.0895 15.5481C41.2766 15.2751 41.6631 15.6167 41.4773 15.8879L41.4773 15.8879Z" fill="white"/>
<path d="M33.1728 39.9528C31.5434 39.7728 30.031 39.0196 28.9057 37.8275C27.7804 36.6354 27.1155 35.0821 27.0297 33.445C27.0134 33.1137 27.5275 33.073 27.5438 33.4047C27.6208 34.9293 28.2404 36.3761 29.2905 37.4841C30.3407 38.592 31.7523 39.288 33.2706 39.4466C33.6005 39.4814 33.5009 39.9874 33.1729 39.9528H33.1728Z" fill="white"/>
<path d="M37.1191 53.5423C39.7531 51.4706 41.5095 48.4822 42.038 45.173C42.0901 44.8451 42.5962 44.9432 42.5442 45.2708C41.9878 48.7133 40.1537 51.8195 37.4079 53.9694C37.1461 54.1741 36.8587 53.746 37.1191 53.5423Z" fill="white"/>
<path d="M36.3624 25.2791C36.9784 25.4801 37.6346 25.525 38.2722 25.4097C38.9098 25.2944 39.5087 25.0225 40.0153 24.6185C40.2744 24.4106 40.5615 24.8389 40.3041 25.0455C39.7424 25.4893 39.0805 25.7887 38.3764 25.9177C37.6723 26.0466 36.9472 26.0012 36.2647 25.7853C36.1987 25.7704 36.1408 25.7308 36.1029 25.6747C36.0649 25.6187 36.0498 25.5502 36.0605 25.4834C36.0738 25.4164 36.1129 25.3574 36.1695 25.3191C36.226 25.2809 36.2954 25.2665 36.3624 25.2791Z" fill="white"/>
<path d="M44.975 41.6791C48.1296 41.6791 50.6869 39.1218 50.6869 35.9672C50.6869 32.8127 48.1296 30.2554 44.975 30.2554C41.8205 30.2554 39.2632 32.8127 39.2632 35.9672C39.2632 39.1218 41.8205 41.6791 44.975 41.6791Z" fill="#2F2E41"/>
<path d="M76.2284 90.9327H35.9855C35.7051 90.9323 35.4362 90.8208 35.2379 90.6225C35.0396 90.4242 34.9281 90.1553 34.9277 89.8749V73.546C34.9281 73.2656 35.0396 72.9968 35.2379 72.7985C35.4362 72.6002 35.7051 72.4886 35.9855 72.4883H76.2284C76.5089 72.4886 76.7777 72.6001 76.976 72.7984C77.1743 72.9967 77.2859 73.2656 77.2862 73.546V89.8749C77.2859 90.1553 77.1743 90.4242 76.976 90.6225C76.7777 90.8208 76.5089 90.9323 76.2284 90.9327Z" fill="#D1D3D4"/>
<path d="M72.3965 98.7658H39.8174C39.4817 98.7643 39.1603 98.6299 38.9235 98.3921C38.6867 98.1542 38.5537 97.8322 38.5537 97.4965C38.5537 97.1609 38.6867 96.8389 38.9235 96.601C39.1603 96.3631 39.4817 96.2287 39.8174 96.2272H72.3965C74.0335 96.2044 74.0499 98.7889 72.3965 98.7658Z" fill="#E4E4E4"/>
<path d="M72.3967 104.584H39.8175C39.6507 104.584 39.4854 104.551 39.3312 104.488C39.177 104.424 39.0369 104.33 38.9188 104.213C38.8007 104.095 38.7071 103.955 38.6432 103.801C38.5793 103.646 38.5464 103.481 38.5464 103.314C38.5464 103.148 38.5793 102.982 38.6432 102.828C38.7071 102.674 38.8007 102.534 38.9188 102.416C39.0369 102.298 39.177 102.205 39.3312 102.141C39.4854 102.077 39.6507 102.045 39.8175 102.045H72.3967C74.0336 102.022 74.05 104.607 72.3967 104.584Z" fill="#E4E4E4"/>
<path d="M72.3968 110.401H39.8177C39.481 110.401 39.1582 110.267 38.9201 110.029C38.6821 109.791 38.5483 109.468 38.5483 109.132C38.5483 108.795 38.6821 108.472 38.9201 108.234C39.1582 107.996 39.481 107.862 39.8177 107.862H72.3968C74.0338 107.84 74.0501 110.424 72.3968 110.401Z" fill="#E4E4E4"/>
<path d="M75.0715 47.2472C74.9168 47.4817 74.7125 47.6795 74.4731 47.8265C74.2337 47.9736 73.9649 48.0664 73.6858 48.0983C73.4066 48.1303 73.1238 48.1006 72.8574 48.0115C72.5909 47.9223 72.3472 47.7758 72.1435 47.5823L57.8838 53.6693L58.2589 50.1399L72.1555 44.752C72.5032 44.4313 72.9566 44.2494 73.4296 44.2406C73.9026 44.2318 74.3623 44.3968 74.7218 44.7044C75.0812 45.0119 75.3154 45.4407 75.3798 45.9093C75.4443 46.378 75.3346 46.854 75.0715 47.2472Z" fill="#FFB6B6"/>
<path d="M46.0468 46.9193C46.0468 46.9193 44.2838 48.6317 46.0334 50.8353C47.7831 53.0389 56.434 54.4717 57.8214 54.7444C59.2089 55.0171 66.9264 49.7676 66.9264 49.7676L67.6739 45.9644L59.0594 48.9199L46.0468 46.9193Z" fill="#10B981"/>
<path d="M41.3125 59.9116L41.4514 62.5494C41.4514 62.5494 41.0416 64.8859 41.3786 65.3901C41.7131 65.8918 50.8398 65.9552 50.8398 65.9552C50.8398 65.9552 51.4428 62.7043 51.9622 59.8589L41.3125 59.9116Z" fill="#FFB6B6"/>
<path d="M67.5527 94.7882L69.4608 94.4029L68.9147 86.6958L66.0986 87.2648L67.5527 94.7882Z" fill="#FFB6B6"/>
<path d="M70.286 84.7589L72.0597 83.9614L69.7587 76.5874L67.1406 77.7649L70.286 84.7589Z" fill="#FFB6B6"/>
<path d="M71.8308 80.6039L68.4909 82.495L60.254 69.2589C54.4716 73.1545 48.8172 75.0201 43.117 76.0157C41.1898 76.3588 39.2249 76.1849 38.8549 74.2234C38.8376 74.1317 38.8238 74.0395 38.8136 73.9468C38.586 71.8042 41.2511 69.0579 41.5899 66.4366L48.884 65.9987L49.7835 67.152L58.2188 61.9659C58.6283 61.7196 59.0824 61.5567 59.5551 61.4868C60.0278 61.4168 60.5096 61.4411 60.9729 61.5582C61.4361 61.6753 61.8716 61.883 62.2542 62.1692C62.6368 62.4554 62.959 62.8145 63.2022 63.2258C63.258 63.3176 63.3097 63.4117 63.3575 63.5081L71.8308 80.6039Z" fill="#2F2E41"/>
<path d="M69.7868 89.5081L65.9651 89.8632L59.0358 75.6916C52.1645 76.8733 45.682 77.2519 40.0749 75.8223C39.1544 75.5792 38.3665 74.9837 37.8815 74.1644C37.3965 73.3452 37.2534 72.368 37.483 71.444C37.5048 71.3533 37.53 71.2635 37.5587 71.1748C38.2297 69.1273 39.9863 67.6787 41.3703 65.4268L51.4793 65.5803L50.3502 69.4761L60.1703 68.2054C60.6448 68.1486 61.1258 68.1864 61.5856 68.3164C62.0454 68.4464 62.4749 68.6662 62.8493 68.963C63.2238 69.2598 63.5359 69.6277 63.7675 70.0457C63.9991 70.4636 64.1457 70.9233 64.1988 71.3981C64.212 71.5047 64.2206 71.6118 64.2247 71.7192L69.7868 89.5081Z" fill="#2F2E41"/>
<path d="M45.2596 42.1608C47.5266 42.1608 49.3644 40.323 49.3644 38.056C49.3644 35.789 47.5266 33.9512 45.2596 33.9512C42.9926 33.9512 41.1548 35.789 41.1548 38.056C41.1548 40.323 42.9926 42.1608 45.2596 42.1608Z" fill="#FFB6B6"/>
<path d="M42.8529 43.6426L46.6166 44.0854C46.7754 44.104 46.9243 44.1718 47.0427 44.2791C47.1611 44.3864 47.2431 44.528 47.2772 44.6842L47.8758 47.4231L51.607 51.8171C51.607 51.8171 52.9468 54.3293 52.4444 57.1764C51.9419 60.0236 51.7211 62.1392 51.7211 62.1392C51.7211 62.1392 41.7122 65.892 41.3773 65.3895C41.0423 64.8871 40.9336 62.6049 40.9336 62.6049L39.5938 47.6991C39.5938 47.6991 41.1011 45.1869 41.9385 45.1869C42.4789 45.1686 42.4096 43.9523 42.8529 43.6426Z" fill="#10B981"/>
<path d="M51.8229 63.0558C52.3507 63.0558 52.7785 62.5424 52.7785 61.909C52.7785 61.2756 52.3507 60.7622 51.8229 60.7622C51.2951 60.7622 50.8672 61.2756 50.8672 61.909C50.8672 62.5424 51.2951 63.0558 51.8229 63.0558Z" fill="#10B981"/>
<path d="M66.606 92.8035L69.5149 91.3457L70.0631 92.6247L73.7416 93.3683C73.9233 93.405 74.0885 93.4988 74.2131 93.6361C74.3376 93.7733 74.4151 93.9468 74.4341 94.1312C74.4531 94.3155 74.4127 94.5012 74.3188 94.6609C74.2248 94.8207 74.0822 94.9463 73.9119 95.0193L70.3578 96.5428L69.2028 95.5402L69.506 96.9079L68.1659 97.4823L66.606 92.8035Z" fill="#2F2E41"/>
<path d="M69.4531 84.1455L72.336 82.6367L72.9066 83.9059L76.5976 84.5847C76.7799 84.6182 76.9467 84.7091 77.0737 84.8441C77.2007 84.9791 77.2812 85.1512 77.3034 85.3352C77.3257 85.5192 77.2886 85.7056 77.1974 85.867C77.1063 86.0284 76.966 86.1564 76.7969 86.2324L73.2701 87.8182L72.0977 86.8361L72.4249 88.1982L71.0951 88.7961L69.4531 84.1455Z" fill="#2F2E41"/>
<path d="M42.9141 36.7687C41.8297 36.7705 40.7712 36.4365 39.8841 35.8128L39.8545 35.792V35.7559C39.8557 34.7069 40.2729 33.7012 41.0147 32.9595C41.7564 32.2177 42.7621 31.8005 43.8111 31.7993H45.477C46.526 31.8005 47.5317 32.2177 48.2734 32.9595C49.0152 33.7012 49.4324 34.7069 49.4336 35.7559C49.4325 35.996 49.3377 36.2262 49.1694 36.3974C49.0011 36.5686 48.7726 36.6674 48.5326 36.6726L43.0077 36.7679C42.9766 36.7684 42.9452 36.7687 42.9141 36.7687Z" fill="#2F2E41"/>
<path d="M59.4364 68.6986C59.1566 68.7245 58.8746 68.6887 58.6101 68.5938C58.3456 68.4989 58.1052 68.3471 57.9057 68.1492C57.7063 67.9513 57.5526 67.7121 57.4556 67.4484C57.3586 67.1847 57.3206 66.9029 57.3442 66.623L43.6782 59.2996L46.6673 57.3857L59.5606 64.8628C60.0283 64.9337 60.4538 65.1737 60.7563 65.5374C61.0589 65.901 61.2176 66.363 61.2023 66.8358C61.187 67.3087 60.9988 67.7594 60.6733 68.1028C60.3478 68.4461 59.9077 68.6581 59.4364 68.6986H59.4364Z" fill="#FFB6B6"/>
<path d="M41.5457 45.8412C41.5457 45.8412 39.107 45.5358 38.4811 48.279C37.8552 51.0223 42.1456 58.6698 42.8002 59.9231C43.4548 61.1764 52.377 63.9175 52.377 63.9175L55.8125 62.1231L48.12 57.2477L41.5457 45.8412Z" fill="#10B981"/>
<path d="M45.895 32.4106C46.2791 31.9396 45.9788 31.2421 45.6639 30.7224C44.9422 29.5316 44.1848 28.3635 43.3914 27.2182C42.4001 25.787 41.1989 24.2908 39.4921 23.9477C37.9355 23.6348 36.3674 24.3745 35.0282 25.2275C33.7116 26.0662 32.4149 27.1226 31.9137 28.601C31.4342 30.0158 31.771 31.587 32.3677 32.9565C32.8787 34.1295 33.5663 35.5321 32.8374 36.5837C32.4885 37.0158 32.0196 37.335 31.4896 37.501C30.1437 38.0238 28.6974 38.2372 27.2578 38.1254C29.2344 38.1042 30.9645 40.1337 32.8806 39.6482C33.9672 39.3728 34.6908 38.3598 35.2116 37.3672C35.5925 36.7006 35.8502 35.9708 35.9723 35.2128C36.0989 34.1847 35.8251 33.1027 36.1708 32.1262C36.5305 31.1098 37.487 30.4298 38.4523 29.9497C39.0933 29.631 39.7921 29.3648 40.5059 29.4188C42.5293 29.572 43.5772 32.0625 45.4972 32.7191" fill="#2F2E41"/>
<path d="M114.664 46.3096H74.4215C74.1411 46.3093 73.8722 46.1977 73.6739 45.9994C73.4756 45.8011 73.3641 45.5323 73.3638 45.2518V28.923C73.3641 28.6426 73.4756 28.3737 73.6739 28.1754C73.8722 27.9771 74.1411 27.8656 74.4215 27.8652H114.664C114.945 27.8656 115.214 27.9771 115.412 28.1754C115.61 28.3737 115.722 28.6426 115.722 28.923V45.2518C115.722 45.5323 115.61 45.8011 115.412 45.9994C115.214 46.1977 114.945 46.3093 114.664 46.3096Z" fill="#10B981"/>
<path d="M110.833 54.1428H78.2537C77.9171 54.1428 77.5942 54.0091 77.3562 53.771C77.1181 53.533 76.9844 53.2101 76.9844 52.8735C76.9844 52.5368 77.1181 52.214 77.3562 51.9759C77.5942 51.7379 77.9171 51.6042 78.2537 51.6042H110.833C112.47 51.5813 112.486 54.1659 110.833 54.1428Z" fill="#E4E4E4"/>
<path d="M110.833 59.9602H78.2535C78.0867 59.9604 77.9214 59.9278 77.7672 59.8641C77.613 59.8004 77.4729 59.7069 77.3548 59.589C77.2368 59.4711 77.1431 59.3311 77.0792 59.177C77.0153 59.0229 76.9824 58.8577 76.9824 58.6909C76.9824 58.524 77.0153 58.3588 77.0792 58.2047C77.1431 58.0506 77.2368 57.9106 77.3548 57.7927C77.4729 57.6748 77.613 57.5813 77.7672 57.5176C77.9214 57.454 78.0867 57.4213 78.2535 57.4215H110.833C112.47 57.3987 112.486 59.9832 110.833 59.9602Z" fill="#E4E4E4"/>
<path d="M110.833 65.778H78.2537C77.9171 65.778 77.5942 65.6443 77.3562 65.4063C77.1181 65.1682 76.9844 64.8454 76.9844 64.5087C76.9844 64.1721 77.1181 63.8492 77.3562 63.6112C77.5942 63.3731 77.9171 63.2394 78.2537 63.2394H110.833C112.47 63.2166 112.486 65.8011 110.833 65.778Z" fill="#E4E4E4"/>
<path d="M157.608 5.95187H22.801C22.6008 5.95165 22.4089 5.87203 22.2673 5.73047C22.1257 5.58891 22.0461 5.39698 22.0459 5.19678V0.755094C22.0461 0.554897 22.1257 0.362964 22.2673 0.221403C22.4089 0.0798428 22.6008 0.000218914 22.801 0H157.608C157.808 0.000218914 158 0.0798428 158.142 0.221403C158.283 0.362964 158.363 0.554897 158.363 0.755094V5.19678C158.363 5.39698 158.283 5.58891 158.142 5.73047C158 5.87203 157.808 5.95165 157.608 5.95187Z" fill="#E6E7E8"/>
<path d="M26.4285 3.83111C27.0206 3.83111 27.5005 3.35114 27.5005 2.75906C27.5005 2.16698 27.0206 1.68701 26.4285 1.68701C25.8364 1.68701 25.3564 2.16698 25.3564 2.75906C25.3564 3.35114 25.8364 3.83111 26.4285 3.83111Z" fill="white"/>
<path d="M30.4973 3.83111C31.0894 3.83111 31.5694 3.35114 31.5694 2.75906C31.5694 2.16698 31.0894 1.68701 30.4973 1.68701C29.9053 1.68701 29.4253 2.16698 29.4253 2.75906C29.4253 3.35114 29.9053 3.83111 30.4973 3.83111Z" fill="white"/>
<path d="M34.5667 3.83111C35.1588 3.83111 35.6387 3.35114 35.6387 2.75906C35.6387 2.16698 35.1588 1.68701 34.5667 1.68701C33.9746 1.68701 33.4946 2.16698 33.4946 2.75906C33.4946 3.35114 33.9746 3.83111 34.5667 3.83111Z" fill="white"/>
<path d="M153.621 2.02134H148.936C148.844 2.02059 148.756 1.9837 148.692 1.91869C148.627 1.85367 148.591 1.76581 148.591 1.67424C148.591 1.58267 148.627 1.49481 148.692 1.4298C148.756 1.36479 148.844 1.32789 148.936 1.32715H153.621C153.713 1.32789 153.801 1.36479 153.865 1.4298C153.929 1.49481 153.966 1.58267 153.966 1.67424C153.966 1.76581 153.929 1.85367 153.865 1.91869C153.801 1.9837 153.713 2.02059 153.621 2.02134Z" fill="white"/>
<path d="M153.621 3.3231H148.935C148.843 3.3231 148.755 3.28654 148.69 3.22144C148.625 3.15635 148.588 3.06806 148.588 2.97601C148.588 2.88395 148.625 2.79567 148.69 2.73058C148.755 2.66549 148.843 2.62892 148.935 2.62892H153.621C153.667 2.62853 153.713 2.63721 153.755 2.65448C153.797 2.67175 153.836 2.69725 153.869 2.72952C153.901 2.76179 153.927 2.80019 153.945 2.84249C153.962 2.8848 153.971 2.93018 153.971 2.97601C153.971 3.02184 153.962 3.06722 153.945 3.10953C153.927 3.15184 153.901 3.19023 153.869 3.2225C153.836 3.25477 153.797 3.28027 153.755 3.29754C153.713 3.31481 153.667 3.3235 153.621 3.3231Z" fill="white"/>
<path d="M153.621 4.62485H148.935C148.843 4.62485 148.755 4.58828 148.69 4.52319C148.625 4.4581 148.588 4.36981 148.588 4.27776C148.588 4.1857 148.625 4.09742 148.69 4.03233C148.755 3.96724 148.843 3.93066 148.935 3.93066H153.621C153.713 3.93066 153.802 3.96724 153.867 4.03233C153.932 4.09742 153.968 4.1857 153.968 4.27776C153.968 4.36981 153.932 4.4581 153.867 4.52319C153.802 4.58828 153.713 4.62485 153.621 4.62485Z" fill="white"/>
</g>
<defs>
<clipPath id="clip0_542_2665">
<rect width="205.656" height="150" fill="white"/>
</clipPath>
</defs>
</svg>
