<svg width="18" height="20" viewBox="0 0 18 20" fill="none" xmlns="http://www.w3.org/2000/svg">
<path d="M3.70822 3.50671C3.70822 3.50671 4.10474 2.31552 5.03975 1.56816C5.97475 0.820811 14.6427 4.02235 14.6427 4.02235C14.6427 4.02235 16.157 4.56247 17.0529 5.99354C17.655 6.95629 17.9911 8.37919 17.3531 10.0975C15.8323 14.1899 11.8867 13.7167 10.8587 13.4834C10.3757 13.3741 9.19914 13.0624 9.19914 13.0624C9.19914 13.0624 6.51161 15.2816 3.27743 13.5797C0.815081 12.284 1.12022 10.3471 1.12022 10.3471C1.12022 10.3471 -0.53766 8.68923 0.180321 6.38027C1.04516 3.59972 3.70822 3.50671 3.70822 3.50671Z" fill="#5B9821"/>
<path d="M9.31693 8.45915C11.5606 8.08547 12.2607 7.12762 12.8693 6.23993C13.54 5.26087 13.3605 4.44009 13.8272 4.41724C14.2938 4.3944 14.6659 5.23639 14.1535 6.70662C13.429 8.7855 11.9392 9.09064 11.9098 9.65034C11.887 10.0942 13.4959 10.1252 14.9482 9.417C17.0515 8.38898 17.0515 5.98211 17.0515 5.98211C17.0515 5.98211 16.6779 5.21028 15.9534 4.67343C15.2289 4.13658 14.6904 3.85591 14.6904 3.85591C14.6904 3.85591 13.8255 0.608679 9.9011 0.0701931C5.97669 -0.468293 4.36286 2.26819 4.36286 2.26819C4.36286 2.26819 4.50319 3.15588 5.18038 4.1839C5.7205 5.00468 6.27856 4.97857 6.23124 5.44526C6.20024 5.74877 5.22607 5.84178 4.19805 5.39794C3.26141 4.99326 3.0297 4.44009 2.77351 4.44009C2.51732 4.44009 0.392752 5.62312 1.27881 8.13116C1.98047 10.117 4.29922 10.4891 4.71369 10.5609C5.92936 10.7714 6.6294 9.9767 5.76455 9.3452C4.89971 8.7137 3.94186 8.34003 4.15236 7.71016C4.37918 7.02808 5.18854 7.73953 6.16108 8.16053C7.12219 8.57664 8.28565 8.63212 9.31693 8.45915Z" fill="#8BC02B"/>
<path d="M4.85522 11.0626C4.85522 11.0626 5.39371 11.0316 5.61563 10.9679C5.83755 10.9043 6.1378 10.715 6.1378 10.715C6.1378 10.715 8.21831 12.8918 8.43371 13.0746C8.64421 13.2524 8.89224 10.5404 8.89224 10.5404C8.89224 10.5404 9.36708 10.6138 9.81093 10.5437C10.3951 10.4507 10.7933 10.2646 10.7933 10.2646C10.7933 10.2646 10.5093 11.934 10.3984 12.5671C10.3282 12.9734 10.3037 14.1026 10.3037 14.1026L8.78291 15.3688L7.62598 14.5921C7.62598 14.5921 7.62271 14.287 7.45138 14.0797C6.91942 13.4368 4.85522 11.0626 4.85522 11.0626ZM10.1601 14.7847L11.3171 13.3911C11.3171 13.3911 11.7283 13.4221 12.0301 13.4221C12.3304 13.4221 12.8542 13.3585 12.8542 13.3585C12.8542 13.3585 11.9045 14.6411 11.397 15.2742C10.8895 15.9073 10.2254 16.7004 10.2254 16.7004L9.59227 14.863L10.1601 14.7847Z" fill="#6D4B41"/>
<path d="M9.33806 13.6752C8.86484 13.7176 7.62796 14.5939 7.62796 14.5939C7.62796 14.5939 7.6916 16.0821 7.64427 16.9224C7.59695 17.7628 7.2657 19.1351 7.57084 19.4827C7.83519 19.7829 10.0577 19.84 10.3889 19.4908C10.7218 19.1416 10.3987 17.6991 10.3987 16.7641C10.3987 15.8291 10.3041 14.1027 10.3041 14.1027C10.3041 14.1027 9.87654 13.6279 9.33806 13.6752Z" fill="#865B50"/>
</svg>
